:version 1.10
:name ASF
:units
  mass 1
  length 1
  angle deg
:documentation
  ASF file generated by Kaydara
:root
  axis xyz
  order  tx ty tz rx ry rz
  position 0 0 0
  orientation 0 0 0
:bonedata
  begin
    id 1
    name RightUpLegDummy
    direction -1 2.30186e-007 8.31532e-007
    length 4.46685
    axis 0 0 0 xyz
  end
  begin
    id 2
    name RightUpLeg
    direction -2.30187e-007 -1 1.24343e-010
    length 16.4045
    axis -3.49089 -0.000906625 0.000286804 xyz
    dof rx ry rz
  end
  begin
    id 3
    name RightLeg
    direction -2.30181e-007 -1 -4.17157e-009
    length 17.5097
    axis 3.68512 0.0193738 -0.131023 xyz
    dof rx ry rz
  end
  begin
    id 4
    name RightFoot
    direction 8.31421e-007 -4.51202e-011 1
    length 6.49508
    axis 4.81691e-005 -0.120479 -0.188788 xyz
    dof rx ry rz
  end
  begin
    id 5
    name RightToes
    direction 0.00124746 -0.014064 0.9999
    length 3.85082
    axis 0.000481921 0.542163 -0.142578 xyz
    dof rx ry rz
  end
  begin
    id 6
    name SpineDummy
    direction 0.0717043 0.9409 -0.331007
    length 10.0032
    axis 0 0 0 xyz
  end
  begin
    id 7
    name Spine
    direction 2.30186e-007 1 4.58806e-011
    length 9.84055
    axis -0.001389 0.000121418 2.40972e-006 xyz
    dof rx ry rz
  end
  begin
    id 8
    name Spine1
    direction 0 0 0
    length 0
    axis -0.001389 0.000121451 1.30017e-006 xyz
    dof rx ry rz
  end
  begin
    id 9
    name HEadDummy
    direction -0.00347485 0.950688 -0.310128
    length 8.00997
    axis -0.001389 0.000121451 1.30017e-006 xyz
  end
  begin
    id 10
    name HEad
    direction -0.0222688 0.980941 0.193023
    length 5.12695
    axis -0.001389 0.000121451 1.30017e-006 xyz
    dof rx ry rz
  end
  begin
    id 11
    name LeftShoulder1Dummy
    direction 0.988871 0.146793 -0.0242004
    length 3.5792
    axis -0.001389 0.000121451 1.30017e-006 xyz
  end
  begin
    id 12
    name LeftShoulder1
    direction 0.993832 0.108932 0.020779
    length 4.16823
    axis -0.001389 0.000121451 1.30017e-006 xyz
    dof rx ry rz
  end
  begin
    id 13
    name LeftArm
    direction 1 3.44807e-006 -8.31404e-007
    length 9.91437
    axis -23.1894 0.134784 0.967509 xyz
    dof rx ry rz
  end
  begin
    id 14
    name LeftForeArm
    direction 1 3.44842e-006 -8.31581e-007
    length 9.08575
    axis -9.91835 -0.06569 -0.177793 xyz
    dof rx ry rz
  end
  begin
    id 15
    name LeftHand
    direction 0.992938 -0.0411636 0.11126
    length 5.32135
    axis -0.00960232 -0.00340091 0.185173 xyz
    dof rx ry rz
  end
  begin
    id 16
    name RightShoulderDummy
    direction -0.988871 0.146793 -0.0241962
    length 3.5792
    axis -0.001389 0.000121451 1.30017e-006 xyz
  end
  begin
    id 17
    name RightShoulder
    direction -0.993832 0.108933 0.0207785
    length 4.16823
    axis 0.215806 0.000203643 -0.0068026 xyz
    dof rx ry rz
  end
  begin
    id 18
    name RightArm
    direction -1 3.90912e-006 8.31284e-007
    length 9.91437
    axis -23.2009 -0.134239 -0.964101 xyz
    dof rx ry rz
  end
  begin
    id 19
    name RightForeArm
    direction -1 3.90882e-006 8.31502e-007
    length 9.08575
    axis -9.92322 0.0658061 0.178867 xyz
    dof rx ry rz
  end
  begin
    id 20
    name RightHand
    direction -0.992843 -0.0414603 0.112003
    length 5.28593
    axis -0.00960638 0.00330671 -0.185228 xyz
    dof rx ry rz
  end
  begin
    id 21
    name LeftUpLegDummy
    direction 1 -2.30186e-007 -8.31532e-007
    length 4.46685
    axis 0 0 0 xyz
  end
  begin
    id 22
    name LeftUpLeg
    direction -2.30187e-007 -1 6.00931e-010
    length 16.4045
    axis -3.48766 0.00143442 -0.000524262 xyz
    dof rx ry rz
  end
  begin
    id 23
    name LeftLeg
    direction -2.30187e-007 -1 1.6669e-009
    length 17.5097
    axis 3.68178 -0.00654042 -0.000285133 xyz
    dof rx ry rz
  end
  begin
    id 24
    name LeftFoot
    direction 8.31532e-007 -4.54478e-011 1
    length 6.49508
    axis 1.87233e-006 4.66016e-005 -8.6538e-006 xyz
    dof rx ry rz
  end
  begin
    id 25
    name LeftToes
    direction 0.00818058 -0.00485161 0.999955
    length 3.85048
    axis 1.06247e-005 4.65869e-005 -8.65513e-006 xyz
    dof rx ry rz
  end
:hierarchy
  begin
    root RightUpLegDummy SpineDummy LeftUpLegDummy
    RightUpLegDummy RightUpLeg
    RightUpLeg RightLeg
    RightLeg RightFoot
    RightFoot RightToes
    SpineDummy Spine
    Spine Spine1
    Spine1 HEadDummy LeftShoulder1Dummy RightShoulderDummy
    HEadDummy HEad
    LeftShoulder1Dummy LeftShoulder1
    LeftShoulder1 LeftArm
    LeftArm LeftForeArm
    LeftForeArm LeftHand
    RightShoulderDummy RightShoulder
    RightShoulder RightArm
    RightArm RightForeArm
    RightForeArm RightHand
    LeftUpLegDummy LeftUpLeg
    LeftUpLeg LeftLeg
    LeftLeg LeftFoot
    LeftFoot LeftToes
  end

:SAMPLES-PER-SECOND 30
:FULLY-SPECIFIED
:DEGREES
160
root  40.0653 33.548 -65.6714 -0.870083 -47.0105 -0.398119
RightUpLeg  -4.43697 -0.458158 0.967911
RightLeg  15.6063 -6.5435 -1.37687
RightFoot  -0.550577 -0.0448475 0.0377657
RightToes  -22.9778 -0.0752063 -0.172126
Spine  4.78579 -2.00026 0.298732
Spine1  8.88611 -3.893 0.0174326
HEad  13.9432 -0.0182222 8.20628
LeftShoulder1  0 -2.42657e-020 -4.95415e-022
LeftArm  17.2014 8.20438 -78.3052
LeftForeArm  49.2288 -71.0672 -31.1566
LeftHand  -0.0670147 -0.557093 12.929
RightShoulder  0 2.42657e-020 1.07489e-018
RightArm  15.2181 -19.9696 64.4414
RightForeArm  152.523 76.3551 132.53
RightHand  -4.96247 14.3419 -37.6551
LeftUpLeg  -4.15863 3.16696 3.26007
LeftLeg  18.2219 -1.34611 -0.351239
LeftFoot  -2.19322 -0.00364454 0.00773147
LeftToes  -13.973 8.72033e-007 1.17809e-007
161
root  40.0607 33.5478 -65.6653 -0.910495 -46.9477 -0.392546
RightUpLeg  -4.39863 -0.496756 0.959731
RightLeg  15.645 -6.56141 -1.38525
RightFoot  -0.59045 -0.0455758 0.0422891
RightToes  -22.957 -0.0750776 -0.171949
Spine  4.7865 -2.001 0.309819
Spine1  8.88819 -3.88973 0.0401058
HEad  13.8389 -0.00128777 8.1887
LeftShoulder1  0 -2.42657e-020 -4.95415e-022
LeftArm  17.2604 8.18272 -78.3254
LeftForeArm  49.1992 -71.066 -31.1543
LeftHand  -0.0662806 -0.567581 12.942
RightShoulder  0 2.42657e-020 1.07489e-018
RightArm  15.2819 -19.9834 64.3123
RightForeArm  152.653 76.3235 132.679
RightHand  -4.92562 14.2462 -37.6306
LeftUpLeg  -4.14766 3.17927 3.25199
LeftLeg  18.2686 -1.39062 -0.363997
LeftFoot  -2.2151 -0.00396064 0.00821509
LeftToes  -13.9949 8.72033e-007 1.17809e-007
162
root  40.0585 33.5475 -65.6632 -0.931476 -46.9206 -0.38801
RightUpLeg  -4.39356 -0.478795 0.961567
RightLeg  15.6889 -6.6076 -1.40024
RightFoot  -0.614283 -0.0462259 0.0458452
RightToes  -23.0259 -0.0749732 -0.171801
Spine  4.78769 -2.00368 0.316729
Spine1  8.8901 -3.89072 0.0531641
HEad  13.8328 0.0536135 8.23914
LeftShoulder1  0 -2.42657e-020 -4.95415e-022
LeftArm  17.2971 8.16512 -78.3183
LeftForeArm  49.186 -71.0641 -31.1506
LeftHand  -0.065703 -0.566342 12.9493
RightShoulder  0 2.42657e-020 1.07489e-018
RightArm  15.311 -19.9792 64.2481
RightForeArm  152.586 76.3243 132.675
RightHand  -4.92132 14.2527 -37.5836
LeftUpLeg  -4.13904 3.14363 3.24796
LeftLeg  18.2866 -1.38333 -0.362565
LeftFoot  -2.22694 -0.00427074 0.00866508
LeftToes  -13.9867 8.72033e-007 1.17809e-007
163
root  40.0564 33.5473 -65.663 -0.962604 -46.9014 -0.373905
RightUpLeg  -4.38201 -0.49612 0.952009
RightLeg  15.7188 -6.60005 -1.40224
RightFoot  -0.637793 -0.0467092 0.047067
RightToes  -22.9337 -0.0748938 -0.171683
Spine  4.78726 -2.01172 0.325986
Spine1  8.88825 -3.90688 0.0691305
HEad  13.8842 0.0390027 8.25154
LeftShoulder1  0 -2.42657e-020 -4.95415e-022
LeftArm  17.3242 8.14822 -78.3126
LeftForeArm  49.061 -71.0134 -31.0505
LeftHand  -0.0637933 -0.562541 12.9923
RightShoulder  0 2.42657e-020 1.07489e-018
RightArm  15.3572 -19.9327 64.1996
RightForeArm  152.295 76.3737 132.441
RightHand  -4.88527 14.1903 -37.4805
LeftUpLeg  -4.10333 3.11156 3.24299
LeftLeg  18.2614 -1.40127 -0.366577
LeftFoot  -2.20947 -0.00457465 0.00908272
LeftToes  -13.9886 8.72033e-007 1.17809e-007
164
root  40.0547 33.547 -65.6637 -0.971597 -46.901 -0.370595
RightUpLeg  -4.36436 -0.51101 0.95002
RightLeg  15.7016 -6.59111 -1.40456
RightFoot  -0.630907 -0.0471113 0.0472902
RightToes  -22.94 -0.0748398 -0.171597
Spine  4.78288 -2.01406 0.329272
Spine1  8.88052 -3.9115 0.0752108
HEad  13.8801 0.00269619 8.29699
LeftShoulder1  0 -2.42657e-020 -4.95415e-022
LeftArm  17.3776 8.14687 -78.2849
LeftForeArm  49.0342 -70.9824 -30.9896
LeftHand  -0.0639208 -0.568817 12.9851
RightShoulder  0 2.42657e-020 1.07489e-018
RightArm  15.3937 -19.9044 64.1878
RightForeArm  152.027 76.4193 132.224
RightHand  -4.89222 14.2019 -37.5014
LeftUpLeg  -4.09675 3.04924 3.23573
LeftLeg  18.2626 -1.33232 -0.348677
LeftFoot  -2.20892 -0.00487214 0.00946931
LeftToes  -13.9721 8.72033e-007 1.17809e-007
165
root  40.0559 33.5467 -65.6643 -1.01179 -46.882 -0.360667
RightUpLeg  -4.33904 -0.522301 0.945083
RightLeg  15.7129 -6.5928 -1.40561
RightFoot  -0.644105 -0.0474493 0.046787
RightToes  -22.9249 -0.074812 -0.171543
Spine  4.79899 -2.02202 0.341695
Spine1  8.91102 -3.92822 0.0977354
HEad  13.794 -0.0298386 8.3851
LeftShoulder1  0 -2.42657e-020 -4.95415e-022
LeftArm  17.4438 8.1322 -78.2509
LeftForeArm  49.0817 -70.9774 -30.9798
LeftHand  -0.0624171 -0.481344 13.0028
RightShoulder  0 2.42657e-020 1.07489e-018
RightArm  15.4446 -19.8966 64.1444
RightForeArm  152.049 76.4185 132.228
RightHand  -4.93058 14.2614 -37.628
LeftUpLeg  -4.11117 3.038 3.23192
LeftLeg  18.3388 -1.3506 -0.355359
LeftFoot  -2.21974 -0.00516301 0.00982614
LeftToes  -14.0009 8.72033e-007 1.17809e-007
166
root  40.0564 33.5465 -65.6647 -1.01492 -46.8837 -0.359456
RightUpLeg  -4.34253 -0.526787 0.940272
RightLeg  15.7201 -6.59775 -1.40613
RightFoot  -0.646591 -0.0477404 0.0458295
RightToes  -22.9562 -0.0748108 -0.171522
Spine  4.80295 -2.02201 0.345051
Spine1  8.91866 -3.92839 0.10399
HEad  13.771 -0.0400087 8.40813
LeftShoulder1  0 -2.42657e-020 -4.95415e-022
LeftArm  17.4714 8.13074 -78.2351
LeftForeArm  49.0908 -70.9813 -30.9938
LeftHand  -0.0611549 -0.491917 13.0365
RightShoulder  0 2.42657e-020 1.07489e-018
RightArm  15.4914 -19.9056 64.1176
RightForeArm  152.121 76.4046 132.294
RightHand  -4.94895 14.2759 -37.7232
LeftUpLeg  -4.10986 3.05904 3.23099
LeftLeg  18.3392 -1.37517 -0.361793
LeftFoot  -2.23937 -0.00544705 0.0101545
LeftToes  -13.8933 8.72033e-007 1.17809e-007
167
root  40.0624 33.5464 -65.6698 -1.03056 -46.9462 -0.358438
RightUpLeg  -4.36328 -0.456537 0.942189
RightLeg  15.7506 -6.60186 -1.40646
RightFoot  -0.643919 -0.0480015 0.04469
RightToes  -22.9233 -0.074837 -0.171534
Spine  4.82314 -2.02228 0.353431
Spine1  8.95811 -3.9283 0.118616
HEad  13.7 0.0168827 8.49991
LeftShoulder1  0 -2.42657e-020 -4.95415e-022
LeftArm  17.5133 8.12489 -78.1646
LeftForeArm  49.1382 -70.9847 -30.9941
LeftHand  -0.0603374 -0.535917 13.0677
RightShoulder  0 2.42657e-020 1.07489e-018
RightArm  15.5876 -19.8853 64.0616
RightForeArm  152.218 76.3864 132.381
RightHand  -4.91729 14.2099 -37.6616
LeftUpLeg  -4.10953 3.10262 3.22306
LeftLeg  18.3482 -1.32033 -0.34768
LeftFoot  -2.23872 -0.00572404 0.0104557
LeftToes  -13.91 8.72033e-007 1.17809e-007
168
root  40.0681 33.5464 -65.6728 -1.03276 -46.9684 -0.357668
RightUpLeg  -4.36487 -0.42817 0.942269
RightLeg  15.7285 -6.61024 -1.40557
RightFoot  -0.623051 -0.0482499 0.0436405
RightToes  -22.9361 -0.0748909 -0.171581
Spine  4.83337 -2.02228 0.358722
Spine1  8.97742 -3.93055 0.128893
HEad  13.7024 0.00977423 8.55437
LeftShoulder1  0 -2.42657e-020 -4.95415e-022
LeftArm  17.5549 8.10607 -78.1351
LeftForeArm  49.0813 -70.9883 -30.9966
LeftHand  -0.0605568 -0.521035 13.0617
RightShoulder  0 2.42657e-020 1.07489e-018
RightArm  15.6639 -19.8809 64.0244
RightForeArm  152.26 76.371 132.454
RightHand  -4.89859 14.1379 -37.7083
LeftUpLeg  -4.10978 3.12221 3.22301
LeftLeg  18.3441 -1.34487 -0.353995
LeftFoot  -2.23838 -0.00599378 0.010731
LeftToes  -13.8409 8.72033e-007 1.17809e-007
169
root  40.0742 33.5466 -65.6748 -1.03346 -47.0013 -0.356707
RightUpLeg  -4.37199 -0.355818 0.943999
RightLeg  15.7152 -6.64384 -1.41106
RightFoot  -0.587209 -0.0485027 0.0429533
RightToes  -23.0464 -0.0749733 -0.171662
Spine  4.84155 -2.02217 0.362586
Spine1  8.99325 -3.94006 0.137259
HEad  13.7553 -0.00498391 8.57543
LeftShoulder1  0 -2.42657e-020 -4.95415e-022
LeftArm  17.5628 8.10977 -78.1171
LeftForeArm  49.0709 -70.9939 -31.0132
LeftHand  -0.0618811 -0.524899 13.0315
RightShoulder  0 2.42657e-020 1.07489e-018
RightArm  15.7104 -19.8717 63.9866
RightForeArm  152.21 76.3706 132.436
RightHand  -4.89331 14.1213 -37.7122
LeftUpLeg  -4.11004 3.19594 3.22163
LeftLeg  18.3335 -1.36116 -0.357984
LeftFoot  -2.23006 -0.00625605 0.0109817
LeftToes  -13.8176 8.72033e-007 1.17809e-007
